<svg width="48" height="50" viewBox="0 0 48 50" fill="none" xmlns="http://www.w3.org/2000/svg">
<rect width="48" height="48" rx="24" fill="#0057FF"/>
<path d="M18.4324 14.3096C19.3561 14.3096 20.2087 14.3825 20.9902 14.6012C21.7718 14.747 22.4112 15.0386 22.9796 15.4031C23.548 15.7675 23.9743 16.2778 24.2585 16.9339C24.5427 17.59 24.6848 18.3919 24.6848 19.2667C24.6848 20.2873 24.4716 21.162 23.9743 21.8181C23.548 22.4742 22.8375 23.0574 21.9849 23.4948C23.1927 23.8593 24.1164 24.5154 24.6848 25.3902C25.2532 26.265 25.6084 27.3584 25.6084 28.5977C25.6084 29.6183 25.3953 30.4931 25.04 31.2221C24.6848 31.9511 24.1164 32.6071 23.4769 33.0445C22.8375 33.4819 22.0559 33.8464 21.2034 34.0651C20.3508 34.2838 19.4982 34.4296 18.6456 34.4296H9.125V14.3096H18.4324ZM17.864 22.4742C18.6456 22.4742 19.285 22.2555 19.7824 21.891C20.2797 21.5265 20.4929 20.8705 20.4929 20.0686C20.4929 19.6312 20.4218 19.1938 20.2797 18.9022C20.1376 18.6106 19.9245 18.3919 19.6403 18.1732C19.3561 18.0274 19.0719 17.8816 18.7166 17.8087C18.3614 17.7358 18.0061 17.7358 17.5799 17.7358H13.459V22.4742H17.864ZM18.0772 31.0763C18.5035 31.0763 18.9298 31.0034 19.285 30.9305C19.6403 30.8576 19.9955 30.7118 20.2797 30.4931C20.5639 30.2744 20.7771 30.0557 20.9902 29.6912C21.1323 29.3267 21.2744 28.8893 21.2744 28.379C21.2744 27.3584 20.9902 26.6294 20.4218 26.1192C19.8534 25.6818 19.0719 25.4631 18.1482 25.4631H13.459V31.0763H18.0772ZM31.7897 31.0034C32.3581 31.5866 33.2107 31.8782 34.3475 31.8782C35.129 31.8782 35.8395 31.6595 36.4079 31.295C36.9763 30.8576 37.3315 30.4202 37.4736 29.9828H40.955C40.3866 31.7324 39.534 32.9716 38.3973 33.7735C37.2605 34.5025 35.9105 34.9399 34.2764 34.9399C33.1396 34.9399 32.1449 34.7212 31.2213 34.3567C30.2977 33.9922 29.5872 33.4819 28.9477 32.7529C28.3083 32.0968 27.8109 31.295 27.5267 30.3473C27.1715 29.3996 27.0294 28.379 27.0294 27.2126C27.0294 26.1192 27.1715 25.0986 27.5267 24.1509C27.882 23.2032 28.3793 22.4013 29.0188 21.6723C29.6582 21.0163 30.4398 20.4331 31.2923 20.0686C32.216 19.7041 33.1396 19.4854 34.2764 19.4854C35.4842 19.4854 36.55 19.7041 37.4736 20.2144C38.3973 20.7247 39.1077 21.3078 39.6761 22.1826C40.2445 22.9845 40.6708 23.9322 40.955 24.9528C41.0971 25.9734 41.1682 26.9939 41.0971 28.1603H30.795C30.795 29.3267 31.2213 30.4202 31.7897 31.0034ZM36.2658 23.349C35.7684 22.8387 34.9869 22.5471 34.0633 22.5471C33.4238 22.5471 32.9265 22.6929 32.5002 22.9116C32.0739 23.1303 31.7897 23.4219 31.5055 23.7135C31.2213 24.0051 31.0792 24.3696 31.0081 24.7341C30.9371 25.0986 30.866 25.3902 30.866 25.6818H37.2605C37.1184 24.5883 36.7631 23.8593 36.2658 23.349ZM30.0135 15.6946H37.971V17.6629H30.0135V15.6946Z" fill="white"/>
</svg>
