<svg width="48" height="50" viewBox="0 0 48 50" fill="none" xmlns="http://www.w3.org/2000/svg">
<rect width="48" height="48" rx="24" fill="#EA4C89"/>
<path d="M24 41.0221C15.175 41.0221 8 33.6731 8 24.6312C8 15.5765 15.175 8.22754 24 8.22754C32.825 8.22754 40 15.5765 40 24.6184C40 33.6603 32.825 41.0221 24 41.0221ZM37.4875 26.8628C37.025 26.7089 33.2625 25.5675 28.975 26.26C30.7625 31.2876 31.4875 35.3917 31.625 36.2382C34.7 34.122 36.8875 30.7618 37.4875 26.8628ZM29.3375 37.5336C29.1375 36.3023 28.3375 32.0186 26.425 26.9141C26.4 26.927 26.3625 26.9398 26.3375 26.9398C18.625 29.6972 15.8625 35.1737 15.6125 35.6867C17.925 37.5336 20.8375 38.6365 24 38.6365C25.8875 38.6494 27.7 38.2518 29.3375 37.5336ZM13.85 34.0066C14.1625 33.4679 17.9125 27.1065 24.9625 24.7595C25.1375 24.6953 25.325 24.644 25.5 24.5927C25.1625 23.7976 24.7875 23.0024 24.3875 22.22C17.5625 24.3106 10.9375 24.2208 10.3375 24.208C10.3375 24.3491 10.325 24.4901 10.325 24.6312C10.3375 28.2352 11.6625 31.5185 13.85 34.0066ZM10.625 21.7712C11.2375 21.784 16.8625 21.8096 23.2625 20.0654C21 15.9356 18.55 12.4727 18.2 11.9726C14.3625 13.8194 11.5125 17.4362 10.625 21.7712ZM20.8 11.0235C21.175 11.5365 23.6625 14.9993 25.9 19.2189C30.7625 17.3464 32.8125 14.5248 33.0625 14.1657C30.65 11.9726 27.475 10.6387 24 10.6387C22.9 10.6387 21.825 10.7798 20.8 11.0235ZM34.575 15.7817C34.2875 16.1793 32 19.1933 26.95 21.3094C27.2625 21.9764 27.575 22.6561 27.8625 23.3359C27.9625 23.5795 28.0625 23.8232 28.1625 24.0541C32.7125 23.4641 37.225 24.4132 37.675 24.503C37.6375 21.2068 36.4875 18.1672 34.575 15.7817Z" fill="white"/>
</svg>
