<svg width="30" height="44" viewBox="0 0 30 44" fill="none" xmlns="http://www.w3.org/2000/svg">
<path d="M14.5833 9.72839C15.9646 9.72839 17.2894 10.2978 18.2662 11.3114C19.2429 12.325 19.7916 13.6997 19.7916 15.1331C19.7916 15.8428 19.6569 16.5456 19.3952 17.2013C19.1334 17.8571 18.7498 18.4529 18.2662 18.9547C17.7825 19.4566 17.2084 19.8547 16.5765 20.1263C15.9446 20.3979 15.2673 20.5377 14.5833 20.5377C13.202 20.5377 11.8772 19.9683 10.9005 18.9547C9.92372 17.9412 9.37499 16.5665 9.37499 15.1331C9.37499 13.6997 9.92372 12.325 10.9005 11.3114C11.8772 10.2978 13.202 9.72839 14.5833 9.72839ZM14.5833 0C18.451 0 22.1604 1.59437 24.8953 4.43237C27.6302 7.27037 29.1666 11.1195 29.1666 15.1331C29.1666 26.4828 14.5833 43.2373 14.5833 43.2373C14.5833 43.2373 0 26.4828 0 15.1331C0 11.1195 1.53645 7.27037 4.27135 4.43237C7.00625 1.59437 10.7156 0 14.5833 0ZM14.5833 4.32373C11.8206 4.32373 9.17113 5.46257 7.21763 7.48971C5.26413 9.51685 4.16666 12.2662 4.16666 15.1331C4.16666 17.2949 4.16666 21.6187 14.5833 36.1248C25 21.6187 25 17.2949 25 15.1331C25 12.2662 23.9025 9.51685 21.949 7.48971C19.9955 5.46257 17.346 4.32373 14.5833 4.32373Z" fill="#E43F5A"/>
</svg>
