<svg width="111" height="45" viewBox="0 0 111 45" fill="none" xmlns="http://www.w3.org/2000/svg">
<path d="M11.1818 38C18.2727 38 22.4773 33.6136 22.4773 26.3409C22.4773 19.0909 18.2727 14.7273 11.3409 14.7273H3.29545V38H11.1818ZM7.51136 34.3523V18.375H11.1023C15.8295 18.375 18.2955 21.0114 18.2955 26.3409C18.2955 31.6932 15.8295 34.3523 10.9773 34.3523H7.51136ZM34.0284 38.3409C38.0966 38.3409 40.892 36.3523 41.6193 33.3182L37.7784 32.8864C37.2216 34.3636 35.858 35.1364 34.0852 35.1364C31.4261 35.1364 29.6648 33.3864 29.6307 30.3977H41.7898V29.1364C41.7898 23.0114 38.108 20.3182 33.8125 20.3182C28.8125 20.3182 25.5511 23.9886 25.5511 29.375C25.5511 34.8523 28.767 38.3409 34.0284 38.3409ZM29.642 27.625C29.767 25.3977 31.4148 23.5227 33.8693 23.5227C36.233 23.5227 37.8239 25.25 37.8466 27.625H29.642ZM45.4517 38H49.4972V35.25H49.7358C50.3835 36.5227 51.7358 38.3068 54.7358 38.3068C58.8494 38.3068 61.929 35.0455 61.929 29.2955C61.929 23.4773 58.7585 20.3182 54.7244 20.3182C51.6449 20.3182 50.3608 22.1705 49.7358 23.4318H49.5653V14.7273H45.4517V38ZM49.4858 29.2727C49.4858 25.8864 50.9403 23.6932 53.5881 23.6932C56.3267 23.6932 57.7358 26.0227 57.7358 29.2727C57.7358 32.5455 56.304 34.9318 53.5881 34.9318C50.9631 34.9318 49.4858 32.6591 49.4858 29.2727ZM65.608 38H69.6534V35.25H69.892C70.5398 36.5227 71.892 38.3068 74.892 38.3068C79.0057 38.3068 82.0852 35.0455 82.0852 29.2955C82.0852 23.4773 78.9148 20.3182 74.8807 20.3182C71.8011 20.3182 70.517 22.1705 69.892 23.4318H69.7216V14.7273H65.608V38ZM69.642 29.2727C69.642 25.8864 71.0966 23.6932 73.7443 23.6932C76.483 23.6932 77.892 26.0227 77.892 29.2727C77.892 32.5455 76.4602 34.9318 73.7443 34.9318C71.1193 34.9318 69.642 32.6591 69.642 29.2727ZM99.3778 25.1591C98.8097 22.2045 96.446 20.3182 92.3551 20.3182C88.1506 20.3182 85.2869 22.3864 85.2983 25.6136C85.2869 28.1591 86.8551 29.8409 90.2074 30.5341L93.1847 31.1591C94.7869 31.5114 95.5369 32.1591 95.5369 33.1477C95.5369 34.3409 94.2415 35.2386 92.2869 35.2386C90.4006 35.2386 89.1733 34.4205 88.821 32.8523L84.8097 33.2386C85.321 36.4432 88.0142 38.3409 92.2983 38.3409C96.6619 38.3409 99.7415 36.0795 99.7528 32.7727C99.7415 30.2841 98.1392 28.7614 94.8438 28.0455L91.8665 27.4091C90.0938 27.0114 89.3892 26.3977 89.4006 25.3864C89.3892 24.2045 90.696 23.3864 92.4119 23.3864C94.3097 23.3864 95.3097 24.4205 95.6278 25.5682L99.3778 25.1591Z" fill="black"/>
<path d="M105.679 38.25C107.02 38.25 108.168 37.1364 108.179 35.75C108.168 34.3864 107.02 33.2727 105.679 33.2727C104.293 33.2727 103.168 34.3864 103.179 35.75C103.168 37.1364 104.293 38.25 105.679 38.25Z" fill="#E43F5A"/>
<path d="M8.3166 2.62415C9.1036 1.39735 10.8964 1.39735 11.6834 2.62415L16.6845 10.4201C17.5384 11.7512 16.5826 13.5 15.0011 13.5H4.9989C3.41743 13.5 2.46159 11.7512 3.3155 10.4201L8.3166 2.62415Z" fill="#E43F5A"/>
</svg>
