<svg width="48" height="50" viewBox="0 0 48 50" fill="none" xmlns="http://www.w3.org/2000/svg">
<rect width="48" height="48" rx="24" fill="#1DA1F2"/>
<path d="M35.7625 19.3022C35.7625 19.5715 35.7625 19.8409 35.7625 20.0717C35.7625 28.0363 29.8375 37.2321 19.0375 37.2321C15.7 37.2321 12.625 36.2317 10 34.5388C10.45 34.5772 10.9375 34.6157 11.3875 34.6157C14.125 34.6157 16.675 33.6538 18.7 32.0378C16.1125 31.9993 13.9375 30.2294 13.225 27.8439C13.6 27.9209 13.9375 27.9593 14.35 27.9593C14.875 27.9593 15.4 27.8824 15.8875 27.7285C13.1875 27.1898 11.1625 24.7658 11.1625 21.8416C11.1625 21.8031 11.1625 21.8031 11.1625 21.7647C11.95 22.2264 12.85 22.4957 13.825 22.5342C12.25 21.4569 11.2 19.61 11.2 17.4938C11.2 16.378 11.5 15.3391 11.9875 14.4542C14.875 18.1094 19.225 20.4949 24.1 20.7643C23.9875 20.341 23.95 19.8409 23.95 19.3791C23.95 16.0317 26.575 13.3384 29.8375 13.3384C31.525 13.3384 33.0625 14.0694 34.1125 15.2237C35.4625 14.9544 36.7 14.4542 37.8625 13.7616C37.4125 15.1852 36.475 16.3395 35.275 17.109C36.475 16.9551 37.6 16.6473 38.65 16.1471C37.9 17.3784 36.925 18.4557 35.7625 19.3022Z" fill="white"/>
</svg>
